Patient4_TMGait_0pt4_01_right_11_EMG.mot
version=1
nRows=16
nColumns=33
inDegrees=no
endheader
time	1LAddLong	2LGlutMax	3LGlutMed	4LIliopsoas	5LSemiMemb	6LBicFemLong	7LRecFem	8LVastMed	9LVastLat	10LGasMed	11LTibAnt	12lTibPost	13LPeroneusLong	14LSol	15LExtDigLong	16LFlexDigLong	17RAddLong	18RGlutMax	19RGlutMed	20RIliopsoas	21RSemiMemb	22RBicFemLong	23RRecFem	24RVastMed	25RVastLat	26RGasMed	27RTibAnt	28RTibPost	29RPeroneusLong	30RSol	31RExtDigLong	32RFlexDigLong
14.457	-0.002289	0.068207	-0.12573	0.014496	0.02655	-0.043335	-0.11948	0.001984	0.14191	-0.050964	0.063477	0.002594	0.13611	-0.041199	-0.2179	0.013885	-0.040588	-1.1307	-0.77591	0.008392	-0.21362	-0.12665	0.45685	-0.026398	-0.11505	0.075836	0.093689	0.10788	0.28625	-0.80521	-0.001221	-0.02655
14.458	-0.003204	0.029449	-0.12436	-0.010986	0.029755	-0.0354	-0.10605	0.006866	0.14297	-0.039368	0.39993	0.004425	0.04303	-0.13062	0.50293	-0.013275	-0.018463	-1.0887	-0.86334	0.10681	0.045929	-0.10056	0.065765	-0.074158	-0.014343	0.052338	0.11643	-0.061188	-0.010223	-0.71198	-0.000916	-0.032654
14.459	0.004578	0.030365	-0.11826	-0.001526	0.009918	-0.05661	-0.082397	0.000305	0.17303	-0.034485	0.43716	0.011902	0.061035	-0.23224	-0.058746	-0.008392	-0.041199	-1.0924	-0.31738	0.20401	0.000916	-0.025787	-0.39063	0.092316	0.045013	0.073547	0.052185	-0.39261	-0.10452	0.052032	0.004425	-0.020142
14.46	0.059662	0.00473	-0.1091	0.01709	0.003662	-0.051117	-0.092773	0.003967	0.19974	-0.027161	0.35187	0	0.038452	-0.06958	-0.13489	-0.006561	-0.027313	-1.1441	-0.59692	0.1593	-0.10056	-0.093689	-0.43045	0.18097	0.072784	0.008698	0.000305	0.10162	0.11551	0.31769	-0.004578	-0.005646
14.461	0.02182	0.066528	-0.096283	0.016022	0.011749	-0.060577	-0.11932	-0.009766	0.2243	-0.02121	0.095825	0.009155	-0.002289	0.006256	1.1273	-0.009766	0.010834	-1.0272	-0.15289	0.025024	-0.046387	-0.19531	0.009918	0.23895	0.10346	-0.15381	-0.056458	0.10925	0.17883	0.16892	-0.000763	-0.005493
14.462	0.027008	0.068207	-0.094299	0.018463	0.005188	-0.033875	-0.13046	-0.008545	0.21805	-0.024261	-0.020294	0.009766	-0.084229	0.12497	-0.2124	-0.021667	0.016327	-0.9462	0.44662	-0.033875	-0.079956	-0.26169	0.33234	0.085602	0.062103	-0.10986	-0.081329	0.055389	0.14252	0.015411	-0.002136	0.002289
14.463	0.001221	0.0383	-0.098724	0.015564	0.016022	-0.043488	-0.10819	0.001984	0.21179	-0.023499	-0.28763	0.018158	-0.039978	0.25971	-0.45059	-0.008545	0.01709	-0.96283	-0.30167	-0.016174	-0.086975	-0.27649	0.50308	-0.12405	-0.019836	0.039978	-0.057678	0.11826	0.19424	-0.23773	0.005646	-0.001221
14.464	0.008698	0.026398	-0.10132	-0.001068	0.017395	-0.04715	-0.051727	-0.000763	0.21561	-0.041351	-0.34485	0.020752	0.094452	0.19134	-0.85052	-0.00885	0.000153	-0.94055	-0.7782	-0.014496	-0.085907	-0.077057	0.51407	-0.033875	0.002899	-0.012512	0.011139	-0.001526	0.19547	0.29495	-0.001831	-0.009003
14.465	0.009155	0.027618	-0.098572	-0.000916	0.003204	-0.059052	-0.026398	0.00351	0.20264	-0.02243	-0.31799	0.013123	0.050507	0.087585	-0.91843	-0.024261	-0.024872	-0.77469	-0.26291	-0.066986	0.11063	0.12085	0.43869	0.004425	0.053711	0.10635	0.007935	-0.24628	0.15106	0.23209	-0.003052	-0.015869
14.466	0.002441	-0.014496	-0.088806	0.011902	0.022583	-0.04364	-0.008087	-0.010834	0.20905	0.013733	-0.27771	0.006866	-0.040131	-0.094147	-0.33905	-0.023193	0.009613	-0.82367	-0.55191	-0.029602	0.080414	0.168	0.33081	-0.089874	-0.002594	0.16998	-0.032349	-0.10773	0.13107	-0.33768	-0.001678	-0.014496
14.467	0.003204	-0.015869	-0.075226	0.010223	0.021515	-0.05249	-0.025482	0.00351	0.21973	0.019989	-0.20386	0.015717	-0.048065	-0.32745	0.43793	-0.006866	0.031891	-0.84625	-0.89783	-0.020752	-0.0737	0.12405	0.25253	-0.006561	-0.13596	0.079956	-0.044403	0.077972	-0.20432	-0.35614	-0.001373	-0.005493
14.468	0.010223	-0.04837	-0.096588	-0.001068	0.009155	-0.062103	-0.012817	0.005341	0.22583	0.000763	0.13046	0.013428	-0.021973	-0.33005	0.56778	-0.01236	0.002594	-0.6665	-1.7572	-0.027008	-0.31494	0.10452	0.19455	0.039978	-0.3038	0.070343	-0.059967	-0.18188	-0.16266	0.12589	0.000153	-0.00473
14.469	0.005188	-0.01709	-0.11139	0.007477	0.002747	-0.049286	0.000153	0.007629	0.22614	-0.035095	-0.098114	0.013885	0.026245	-0.16937	0.4808	0.002136	-0.023041	-0.36316	-0.24475	-0.055542	-0.20752	-0.043793	0.009613	0.15747	-0.35629	0.013275	-0.01236	0.023956	-0.084686	0.74341	0.000916	-0.009308
14.47	0.00473	-0.027924	-0.098114	0.00351	0.018768	-0.06134	0.007324	-0.004272	0.19959	-0.024261	-0.14862	0.029755	0.049896	-0.15976	-0.091553	-0.002594	-0.020142	-0.30411	0.020447	-0.14496	0.16113	-0.090332	-0.18097	0.012665	-0.34042	0.025024	0.084839	0.28183	-0.11414	0.56488	0.00061	-0.016937
14.471	0.059357	-0.052032	-0.10757	0.028992	0.000916	-0.03891	0.051727	0.003967	0.1976	-0.016327	0.002136	0.018311	-0.001068	-0.20493	-0.37033	-0.015717	-0.002594	-0.18372	0.72342	-0.074158	0.14771	-0.19089	-0.16922	-0.038147	-0.29694	0.044708	0.14877	0.11093	-0.10117	0.030975	-0.003357	-0.007935
14.472	0.035553	-0.079498	-0.1033	0.01709	0.003052	-0.049744	0.067291	0.012054	0.19608	-0.02121	0.028992	0.01236	-0.007324	-0.069427	-0.19211	-0.000458	0.013885	-0.19577	0.73791	0.073853	0.16663	-0.34637	-0.053711	0.20218	0.007629	0.062256	0.14847	0.02655	-0.12909	-0.2301	-0.001221	-0.006561
